G04 EAGLE Gerber RS-274X export*
G75*
%MOMM*%
%FSLAX34Y34*%
%LPD*%
%INSilkscreen Top*%
%IPPOS*%
%AMOC8*
5,1,8,0,0,1.08239X$1,22.5*%
G01*
%ADD10R,0.889000X0.190500*%
%ADD11C,0.152400*%
%ADD12C,0.101600*%
%ADD13C,0.127000*%

G36*
X378478Y22102D02*
X378478Y22102D01*
X378495Y22100D01*
X378599Y22121D01*
X378703Y22139D01*
X378718Y22147D01*
X378736Y22151D01*
X378827Y22204D01*
X378920Y22254D01*
X378932Y22266D01*
X378948Y22276D01*
X379017Y22355D01*
X379090Y22432D01*
X379097Y22448D01*
X379109Y22462D01*
X379149Y22559D01*
X379193Y22655D01*
X379195Y22673D01*
X379202Y22689D01*
X379209Y22795D01*
X379220Y22899D01*
X379216Y22917D01*
X379218Y22935D01*
X379190Y23037D01*
X379168Y23140D01*
X379159Y23155D01*
X379154Y23172D01*
X379069Y23317D01*
X375259Y28397D01*
X375256Y28400D01*
X375254Y28404D01*
X375167Y28485D01*
X375082Y28567D01*
X375078Y28569D01*
X375075Y28572D01*
X374966Y28622D01*
X374859Y28672D01*
X374855Y28672D01*
X374851Y28674D01*
X374733Y28687D01*
X374615Y28700D01*
X374611Y28700D01*
X374606Y28700D01*
X374490Y28674D01*
X374374Y28650D01*
X374370Y28647D01*
X374366Y28646D01*
X374264Y28585D01*
X374162Y28525D01*
X374159Y28521D01*
X374156Y28519D01*
X374041Y28397D01*
X370231Y23317D01*
X370223Y23301D01*
X370211Y23288D01*
X370166Y23192D01*
X370117Y23099D01*
X370114Y23081D01*
X370107Y23065D01*
X370095Y22960D01*
X370079Y22856D01*
X370082Y22838D01*
X370080Y22821D01*
X370102Y22718D01*
X370120Y22613D01*
X370128Y22598D01*
X370132Y22580D01*
X370186Y22490D01*
X370236Y22397D01*
X370249Y22384D01*
X370258Y22369D01*
X370338Y22300D01*
X370415Y22228D01*
X370432Y22221D01*
X370445Y22209D01*
X370543Y22170D01*
X370639Y22126D01*
X370657Y22124D01*
X370673Y22117D01*
X370840Y22099D01*
X378460Y22099D01*
X378478Y22102D01*
G37*
D10*
X374650Y27758D03*
D11*
X363728Y8382D02*
X357124Y8382D01*
X357124Y10216D01*
X357126Y10301D01*
X357132Y10385D01*
X357142Y10469D01*
X357155Y10553D01*
X357173Y10636D01*
X357194Y10718D01*
X357219Y10799D01*
X357248Y10879D01*
X357280Y10957D01*
X357316Y11033D01*
X357356Y11108D01*
X357399Y11181D01*
X357445Y11252D01*
X357494Y11321D01*
X357547Y11388D01*
X357603Y11452D01*
X357661Y11513D01*
X357722Y11571D01*
X357786Y11627D01*
X357853Y11680D01*
X357922Y11729D01*
X357993Y11775D01*
X358066Y11818D01*
X358141Y11858D01*
X358217Y11894D01*
X358296Y11926D01*
X358375Y11955D01*
X358456Y11980D01*
X358538Y12001D01*
X358621Y12019D01*
X358705Y12032D01*
X358789Y12042D01*
X358873Y12048D01*
X358958Y12050D01*
X358958Y12051D02*
X361894Y12051D01*
X361894Y12050D02*
X361979Y12048D01*
X362063Y12042D01*
X362147Y12032D01*
X362231Y12019D01*
X362314Y12001D01*
X362396Y11980D01*
X362477Y11955D01*
X362557Y11926D01*
X362635Y11894D01*
X362711Y11858D01*
X362786Y11818D01*
X362859Y11775D01*
X362930Y11729D01*
X362999Y11680D01*
X363066Y11627D01*
X363130Y11571D01*
X363191Y11513D01*
X363249Y11452D01*
X363305Y11388D01*
X363358Y11321D01*
X363407Y11252D01*
X363453Y11181D01*
X363496Y11108D01*
X363536Y11033D01*
X363572Y10957D01*
X363604Y10879D01*
X363633Y10799D01*
X363658Y10718D01*
X363679Y10636D01*
X363697Y10553D01*
X363710Y10469D01*
X363720Y10385D01*
X363726Y10301D01*
X363728Y10216D01*
X363728Y8382D01*
X358592Y15941D02*
X357124Y17775D01*
X363728Y17775D01*
X363728Y15941D02*
X363728Y19610D01*
D12*
X398803Y-1359D02*
X398803Y-13043D01*
X395557Y-1359D02*
X402048Y-1359D01*
X406775Y-1359D02*
X406775Y-13043D01*
X406775Y-1359D02*
X410021Y-1359D01*
X410134Y-1361D01*
X410247Y-1367D01*
X410360Y-1377D01*
X410473Y-1391D01*
X410585Y-1408D01*
X410696Y-1430D01*
X410806Y-1455D01*
X410916Y-1485D01*
X411024Y-1518D01*
X411131Y-1555D01*
X411237Y-1595D01*
X411341Y-1640D01*
X411444Y-1688D01*
X411545Y-1739D01*
X411644Y-1794D01*
X411741Y-1852D01*
X411836Y-1914D01*
X411929Y-1979D01*
X412019Y-2047D01*
X412107Y-2118D01*
X412193Y-2193D01*
X412276Y-2270D01*
X412356Y-2350D01*
X412433Y-2433D01*
X412508Y-2519D01*
X412579Y-2607D01*
X412647Y-2697D01*
X412712Y-2790D01*
X412774Y-2885D01*
X412832Y-2982D01*
X412887Y-3081D01*
X412938Y-3182D01*
X412986Y-3285D01*
X413031Y-3389D01*
X413071Y-3495D01*
X413108Y-3602D01*
X413141Y-3710D01*
X413171Y-3820D01*
X413196Y-3930D01*
X413218Y-4041D01*
X413235Y-4153D01*
X413249Y-4266D01*
X413259Y-4379D01*
X413265Y-4492D01*
X413267Y-4605D01*
X413265Y-4718D01*
X413259Y-4831D01*
X413249Y-4944D01*
X413235Y-5057D01*
X413218Y-5169D01*
X413196Y-5280D01*
X413171Y-5390D01*
X413141Y-5500D01*
X413108Y-5608D01*
X413071Y-5715D01*
X413031Y-5821D01*
X412986Y-5925D01*
X412938Y-6028D01*
X412887Y-6129D01*
X412832Y-6228D01*
X412774Y-6325D01*
X412712Y-6420D01*
X412647Y-6513D01*
X412579Y-6603D01*
X412508Y-6691D01*
X412433Y-6777D01*
X412356Y-6860D01*
X412276Y-6940D01*
X412193Y-7017D01*
X412107Y-7092D01*
X412019Y-7163D01*
X411929Y-7231D01*
X411836Y-7296D01*
X411741Y-7358D01*
X411644Y-7416D01*
X411545Y-7471D01*
X411444Y-7522D01*
X411341Y-7570D01*
X411237Y-7615D01*
X411131Y-7655D01*
X411024Y-7692D01*
X410916Y-7725D01*
X410806Y-7755D01*
X410696Y-7780D01*
X410585Y-7802D01*
X410473Y-7819D01*
X410360Y-7833D01*
X410247Y-7843D01*
X410134Y-7849D01*
X410021Y-7851D01*
X410021Y-7850D02*
X406775Y-7850D01*
X417655Y-13043D02*
X420900Y-13043D01*
X421013Y-13041D01*
X421126Y-13035D01*
X421239Y-13025D01*
X421352Y-13011D01*
X421464Y-12994D01*
X421575Y-12972D01*
X421685Y-12947D01*
X421795Y-12917D01*
X421903Y-12884D01*
X422010Y-12847D01*
X422116Y-12807D01*
X422220Y-12762D01*
X422323Y-12714D01*
X422424Y-12663D01*
X422523Y-12608D01*
X422620Y-12550D01*
X422715Y-12488D01*
X422808Y-12423D01*
X422898Y-12355D01*
X422986Y-12284D01*
X423072Y-12209D01*
X423155Y-12132D01*
X423235Y-12052D01*
X423312Y-11969D01*
X423387Y-11883D01*
X423458Y-11795D01*
X423526Y-11705D01*
X423591Y-11612D01*
X423653Y-11517D01*
X423711Y-11420D01*
X423766Y-11321D01*
X423817Y-11220D01*
X423865Y-11117D01*
X423910Y-11013D01*
X423950Y-10907D01*
X423987Y-10800D01*
X424020Y-10692D01*
X424050Y-10582D01*
X424075Y-10472D01*
X424097Y-10361D01*
X424114Y-10249D01*
X424128Y-10136D01*
X424138Y-10023D01*
X424144Y-9910D01*
X424146Y-9797D01*
X424144Y-9684D01*
X424138Y-9571D01*
X424128Y-9458D01*
X424114Y-9345D01*
X424097Y-9233D01*
X424075Y-9122D01*
X424050Y-9012D01*
X424020Y-8902D01*
X423987Y-8794D01*
X423950Y-8687D01*
X423910Y-8581D01*
X423865Y-8477D01*
X423817Y-8374D01*
X423766Y-8273D01*
X423711Y-8174D01*
X423653Y-8077D01*
X423591Y-7982D01*
X423526Y-7889D01*
X423458Y-7799D01*
X423387Y-7711D01*
X423312Y-7625D01*
X423235Y-7542D01*
X423155Y-7462D01*
X423072Y-7385D01*
X422986Y-7310D01*
X422898Y-7239D01*
X422808Y-7171D01*
X422715Y-7106D01*
X422620Y-7044D01*
X422523Y-6986D01*
X422424Y-6931D01*
X422323Y-6880D01*
X422220Y-6832D01*
X422116Y-6787D01*
X422010Y-6747D01*
X421903Y-6710D01*
X421795Y-6677D01*
X421685Y-6647D01*
X421575Y-6622D01*
X421464Y-6600D01*
X421352Y-6583D01*
X421239Y-6569D01*
X421126Y-6559D01*
X421013Y-6553D01*
X420900Y-6551D01*
X421550Y-1359D02*
X417655Y-1359D01*
X421550Y-1359D02*
X421651Y-1361D01*
X421751Y-1367D01*
X421851Y-1377D01*
X421951Y-1390D01*
X422050Y-1408D01*
X422149Y-1429D01*
X422246Y-1454D01*
X422343Y-1483D01*
X422438Y-1516D01*
X422532Y-1552D01*
X422624Y-1592D01*
X422715Y-1635D01*
X422804Y-1682D01*
X422891Y-1732D01*
X422977Y-1786D01*
X423060Y-1843D01*
X423140Y-1903D01*
X423219Y-1966D01*
X423295Y-2033D01*
X423368Y-2102D01*
X423438Y-2174D01*
X423506Y-2248D01*
X423571Y-2325D01*
X423632Y-2405D01*
X423691Y-2487D01*
X423746Y-2571D01*
X423798Y-2657D01*
X423847Y-2745D01*
X423892Y-2835D01*
X423934Y-2927D01*
X423972Y-3020D01*
X424006Y-3115D01*
X424037Y-3210D01*
X424064Y-3307D01*
X424087Y-3405D01*
X424107Y-3504D01*
X424122Y-3604D01*
X424134Y-3704D01*
X424142Y-3804D01*
X424146Y-3905D01*
X424146Y-4005D01*
X424142Y-4106D01*
X424134Y-4206D01*
X424122Y-4306D01*
X424107Y-4406D01*
X424087Y-4505D01*
X424064Y-4603D01*
X424037Y-4700D01*
X424006Y-4795D01*
X423972Y-4890D01*
X423934Y-4983D01*
X423892Y-5075D01*
X423847Y-5165D01*
X423798Y-5253D01*
X423746Y-5339D01*
X423691Y-5423D01*
X423632Y-5505D01*
X423571Y-5585D01*
X423506Y-5662D01*
X423438Y-5736D01*
X423368Y-5808D01*
X423295Y-5877D01*
X423219Y-5944D01*
X423140Y-6007D01*
X423060Y-6067D01*
X422977Y-6124D01*
X422891Y-6178D01*
X422804Y-6228D01*
X422715Y-6275D01*
X422624Y-6318D01*
X422532Y-6358D01*
X422438Y-6394D01*
X422343Y-6427D01*
X422246Y-6456D01*
X422149Y-6481D01*
X422050Y-6502D01*
X421951Y-6520D01*
X421851Y-6533D01*
X421751Y-6543D01*
X421651Y-6549D01*
X421550Y-6551D01*
X421550Y-6552D02*
X418953Y-6552D01*
D13*
X501650Y488950D02*
X247650Y488950D01*
X501650Y488950D02*
X501650Y463550D01*
X247650Y463550D01*
X247650Y488950D01*
X304673Y443103D02*
X304673Y434848D01*
X304675Y434737D01*
X304681Y434627D01*
X304690Y434516D01*
X304704Y434406D01*
X304721Y434297D01*
X304742Y434188D01*
X304767Y434080D01*
X304796Y433973D01*
X304828Y433867D01*
X304864Y433762D01*
X304904Y433659D01*
X304947Y433557D01*
X304994Y433456D01*
X305045Y433357D01*
X305098Y433261D01*
X305155Y433166D01*
X305216Y433073D01*
X305279Y432982D01*
X305346Y432893D01*
X305416Y432807D01*
X305489Y432724D01*
X305564Y432642D01*
X305642Y432564D01*
X305724Y432489D01*
X305807Y432416D01*
X305893Y432346D01*
X305982Y432279D01*
X306073Y432216D01*
X306166Y432155D01*
X306261Y432098D01*
X306357Y432045D01*
X306456Y431994D01*
X306557Y431947D01*
X306659Y431904D01*
X306762Y431864D01*
X306867Y431828D01*
X306973Y431796D01*
X307080Y431767D01*
X307188Y431742D01*
X307297Y431721D01*
X307406Y431704D01*
X307516Y431690D01*
X307627Y431681D01*
X307737Y431675D01*
X307848Y431673D01*
X307959Y431675D01*
X308069Y431681D01*
X308180Y431690D01*
X308290Y431704D01*
X308399Y431721D01*
X308508Y431742D01*
X308616Y431767D01*
X308723Y431796D01*
X308829Y431828D01*
X308934Y431864D01*
X309037Y431904D01*
X309139Y431947D01*
X309240Y431994D01*
X309339Y432045D01*
X309435Y432098D01*
X309530Y432155D01*
X309623Y432216D01*
X309714Y432279D01*
X309803Y432346D01*
X309889Y432416D01*
X309972Y432489D01*
X310054Y432564D01*
X310132Y432642D01*
X310207Y432724D01*
X310280Y432807D01*
X310350Y432893D01*
X310417Y432982D01*
X310480Y433073D01*
X310541Y433166D01*
X310598Y433260D01*
X310651Y433357D01*
X310702Y433456D01*
X310749Y433557D01*
X310792Y433659D01*
X310832Y433762D01*
X310868Y433867D01*
X310900Y433973D01*
X310929Y434080D01*
X310954Y434188D01*
X310975Y434297D01*
X310992Y434406D01*
X311006Y434516D01*
X311015Y434627D01*
X311021Y434737D01*
X311023Y434848D01*
X311023Y443103D01*
X318897Y443103D02*
X318897Y431673D01*
X318897Y437388D02*
X317310Y438341D01*
X317309Y438340D02*
X317236Y438387D01*
X317165Y438436D01*
X317096Y438489D01*
X317030Y438545D01*
X316966Y438604D01*
X316905Y438665D01*
X316847Y438729D01*
X316792Y438796D01*
X316740Y438866D01*
X316692Y438937D01*
X316646Y439011D01*
X316604Y439087D01*
X316566Y439165D01*
X316531Y439244D01*
X316500Y439325D01*
X316473Y439407D01*
X316449Y439490D01*
X316429Y439575D01*
X316413Y439660D01*
X316401Y439746D01*
X316393Y439832D01*
X316389Y439918D01*
X316388Y440005D01*
X316392Y440092D01*
X316400Y440178D01*
X316411Y440264D01*
X316427Y440349D01*
X316446Y440433D01*
X316469Y440517D01*
X316496Y440599D01*
X316527Y440680D01*
X316562Y440760D01*
X316599Y440837D01*
X316641Y440913D01*
X316686Y440988D01*
X316734Y441059D01*
X316786Y441129D01*
X316840Y441196D01*
X316898Y441261D01*
X316958Y441323D01*
X317022Y441382D01*
X317088Y441438D01*
X317156Y441492D01*
X317227Y441541D01*
X317300Y441588D01*
X317375Y441631D01*
X317452Y441671D01*
X317530Y441707D01*
X317611Y441740D01*
X317692Y441769D01*
X317775Y441794D01*
X317859Y441816D01*
X317944Y441833D01*
X317945Y441833D02*
X318082Y441856D01*
X318221Y441876D01*
X318359Y441891D01*
X318498Y441903D01*
X318638Y441911D01*
X318777Y441914D01*
X318917Y441915D01*
X319056Y441911D01*
X319195Y441903D01*
X319334Y441892D01*
X319473Y441876D01*
X319611Y441857D01*
X319749Y441834D01*
X319886Y441807D01*
X320022Y441776D01*
X320157Y441742D01*
X320291Y441704D01*
X320425Y441662D01*
X320556Y441616D01*
X320687Y441567D01*
X320816Y441514D01*
X320944Y441458D01*
X321070Y441398D01*
X321194Y441335D01*
X321317Y441268D01*
X321437Y441198D01*
X318897Y437388D02*
X320485Y436436D01*
X320558Y436389D01*
X320629Y436340D01*
X320698Y436287D01*
X320764Y436231D01*
X320828Y436172D01*
X320889Y436111D01*
X320947Y436047D01*
X321002Y435980D01*
X321054Y435910D01*
X321102Y435839D01*
X321148Y435765D01*
X321190Y435689D01*
X321228Y435611D01*
X321263Y435532D01*
X321294Y435451D01*
X321321Y435369D01*
X321345Y435286D01*
X321365Y435201D01*
X321381Y435116D01*
X321393Y435030D01*
X321401Y434944D01*
X321405Y434858D01*
X321406Y434771D01*
X321402Y434684D01*
X321394Y434598D01*
X321383Y434512D01*
X321367Y434427D01*
X321348Y434343D01*
X321325Y434259D01*
X321298Y434177D01*
X321267Y434096D01*
X321232Y434016D01*
X321195Y433939D01*
X321153Y433863D01*
X321108Y433788D01*
X321060Y433717D01*
X321008Y433647D01*
X320954Y433580D01*
X320896Y433515D01*
X320836Y433453D01*
X320772Y433394D01*
X320706Y433338D01*
X320638Y433284D01*
X320567Y433235D01*
X320494Y433188D01*
X320419Y433145D01*
X320342Y433105D01*
X320264Y433069D01*
X320183Y433036D01*
X320102Y433007D01*
X320019Y432982D01*
X319935Y432960D01*
X319850Y432943D01*
X319849Y432943D02*
X319712Y432920D01*
X319573Y432900D01*
X319435Y432885D01*
X319296Y432873D01*
X319156Y432865D01*
X319017Y432862D01*
X318877Y432861D01*
X318738Y432865D01*
X318599Y432873D01*
X318460Y432884D01*
X318321Y432900D01*
X318183Y432919D01*
X318045Y432942D01*
X317908Y432969D01*
X317772Y433000D01*
X317637Y433034D01*
X317503Y433072D01*
X317369Y433114D01*
X317238Y433160D01*
X317107Y433209D01*
X316978Y433262D01*
X316850Y433318D01*
X316724Y433378D01*
X316600Y433441D01*
X316477Y433508D01*
X316357Y433578D01*
X326390Y440563D02*
X329565Y443103D01*
X329565Y431673D01*
X326390Y431673D02*
X332740Y431673D01*
M02*
