G04 EAGLE Gerber RS-274X export*
G75*
%MOMM*%
%FSLAX34Y34*%
%LPD*%
%INSoldermask Top*%
%IPPOS*%
%AMOC8*
5,1,8,0,0,1.08239X$1,22.5*%
G01*
%ADD10R,1.352400X1.352400*%
%ADD11C,1.152400*%
%ADD12P,2.089446X8X112.500000*%
%ADD13P,1.814519X8X112.500000*%
%ADD14R,1.676400X1.676400*%
%ADD15C,1.552400*%
%ADD16C,3.372400*%
%ADD17C,0.609600*%
%ADD18C,1.168400*%


D10*
X374650Y35900D03*
X374650Y14900D03*
D11*
X374650Y-19050D03*
D12*
X260350Y476250D03*
X285750Y476250D03*
X311150Y476250D03*
X336550Y476250D03*
X361950Y476250D03*
X387350Y476250D03*
X412750Y476250D03*
X438150Y476250D03*
X463550Y476250D03*
X488950Y476250D03*
D13*
X73400Y71800D03*
X48000Y97200D03*
X73400Y97200D03*
X48000Y122600D03*
X73400Y122600D03*
X48000Y148000D03*
X73400Y148000D03*
X48000Y173400D03*
X73400Y173400D03*
X48000Y198800D03*
X73400Y198800D03*
D14*
X302000Y71800D03*
D13*
X327400Y71800D03*
X302000Y97200D03*
X327400Y97200D03*
X302000Y122600D03*
X327400Y122600D03*
X302000Y148000D03*
X327400Y148000D03*
X302000Y173400D03*
X327400Y173400D03*
X302000Y198800D03*
X327400Y198800D03*
D15*
X142600Y333300D03*
X142600Y358300D03*
X142600Y378300D03*
X142600Y403300D03*
D16*
X115499Y302600D03*
X115499Y434000D03*
D17*
X11430Y19050D02*
X11432Y19237D01*
X11439Y19424D01*
X11451Y19611D01*
X11467Y19797D01*
X11487Y19983D01*
X11512Y20168D01*
X11542Y20353D01*
X11576Y20537D01*
X11615Y20720D01*
X11658Y20902D01*
X11706Y21082D01*
X11758Y21262D01*
X11815Y21440D01*
X11875Y21617D01*
X11941Y21792D01*
X12010Y21966D01*
X12084Y22138D01*
X12162Y22308D01*
X12244Y22476D01*
X12330Y22642D01*
X12420Y22806D01*
X12514Y22967D01*
X12612Y23127D01*
X12714Y23283D01*
X12820Y23438D01*
X12930Y23589D01*
X13043Y23738D01*
X13160Y23884D01*
X13280Y24027D01*
X13404Y24167D01*
X13531Y24304D01*
X13662Y24438D01*
X13796Y24569D01*
X13933Y24696D01*
X14073Y24820D01*
X14216Y24940D01*
X14362Y25057D01*
X14511Y25170D01*
X14662Y25280D01*
X14817Y25386D01*
X14973Y25488D01*
X15133Y25586D01*
X15294Y25680D01*
X15458Y25770D01*
X15624Y25856D01*
X15792Y25938D01*
X15962Y26016D01*
X16134Y26090D01*
X16308Y26159D01*
X16483Y26225D01*
X16660Y26285D01*
X16838Y26342D01*
X17018Y26394D01*
X17198Y26442D01*
X17380Y26485D01*
X17563Y26524D01*
X17747Y26558D01*
X17932Y26588D01*
X18117Y26613D01*
X18303Y26633D01*
X18489Y26649D01*
X18676Y26661D01*
X18863Y26668D01*
X19050Y26670D01*
X19237Y26668D01*
X19424Y26661D01*
X19611Y26649D01*
X19797Y26633D01*
X19983Y26613D01*
X20168Y26588D01*
X20353Y26558D01*
X20537Y26524D01*
X20720Y26485D01*
X20902Y26442D01*
X21082Y26394D01*
X21262Y26342D01*
X21440Y26285D01*
X21617Y26225D01*
X21792Y26159D01*
X21966Y26090D01*
X22138Y26016D01*
X22308Y25938D01*
X22476Y25856D01*
X22642Y25770D01*
X22806Y25680D01*
X22967Y25586D01*
X23127Y25488D01*
X23283Y25386D01*
X23438Y25280D01*
X23589Y25170D01*
X23738Y25057D01*
X23884Y24940D01*
X24027Y24820D01*
X24167Y24696D01*
X24304Y24569D01*
X24438Y24438D01*
X24569Y24304D01*
X24696Y24167D01*
X24820Y24027D01*
X24940Y23884D01*
X25057Y23738D01*
X25170Y23589D01*
X25280Y23438D01*
X25386Y23283D01*
X25488Y23127D01*
X25586Y22967D01*
X25680Y22806D01*
X25770Y22642D01*
X25856Y22476D01*
X25938Y22308D01*
X26016Y22138D01*
X26090Y21966D01*
X26159Y21792D01*
X26225Y21617D01*
X26285Y21440D01*
X26342Y21262D01*
X26394Y21082D01*
X26442Y20902D01*
X26485Y20720D01*
X26524Y20537D01*
X26558Y20353D01*
X26588Y20168D01*
X26613Y19983D01*
X26633Y19797D01*
X26649Y19611D01*
X26661Y19424D01*
X26668Y19237D01*
X26670Y19050D01*
X26668Y18863D01*
X26661Y18676D01*
X26649Y18489D01*
X26633Y18303D01*
X26613Y18117D01*
X26588Y17932D01*
X26558Y17747D01*
X26524Y17563D01*
X26485Y17380D01*
X26442Y17198D01*
X26394Y17018D01*
X26342Y16838D01*
X26285Y16660D01*
X26225Y16483D01*
X26159Y16308D01*
X26090Y16134D01*
X26016Y15962D01*
X25938Y15792D01*
X25856Y15624D01*
X25770Y15458D01*
X25680Y15294D01*
X25586Y15133D01*
X25488Y14973D01*
X25386Y14817D01*
X25280Y14662D01*
X25170Y14511D01*
X25057Y14362D01*
X24940Y14216D01*
X24820Y14073D01*
X24696Y13933D01*
X24569Y13796D01*
X24438Y13662D01*
X24304Y13531D01*
X24167Y13404D01*
X24027Y13280D01*
X23884Y13160D01*
X23738Y13043D01*
X23589Y12930D01*
X23438Y12820D01*
X23283Y12714D01*
X23127Y12612D01*
X22967Y12514D01*
X22806Y12420D01*
X22642Y12330D01*
X22476Y12244D01*
X22308Y12162D01*
X22138Y12084D01*
X21966Y12010D01*
X21792Y11941D01*
X21617Y11875D01*
X21440Y11815D01*
X21262Y11758D01*
X21082Y11706D01*
X20902Y11658D01*
X20720Y11615D01*
X20537Y11576D01*
X20353Y11542D01*
X20168Y11512D01*
X19983Y11487D01*
X19797Y11467D01*
X19611Y11451D01*
X19424Y11439D01*
X19237Y11432D01*
X19050Y11430D01*
X18863Y11432D01*
X18676Y11439D01*
X18489Y11451D01*
X18303Y11467D01*
X18117Y11487D01*
X17932Y11512D01*
X17747Y11542D01*
X17563Y11576D01*
X17380Y11615D01*
X17198Y11658D01*
X17018Y11706D01*
X16838Y11758D01*
X16660Y11815D01*
X16483Y11875D01*
X16308Y11941D01*
X16134Y12010D01*
X15962Y12084D01*
X15792Y12162D01*
X15624Y12244D01*
X15458Y12330D01*
X15294Y12420D01*
X15133Y12514D01*
X14973Y12612D01*
X14817Y12714D01*
X14662Y12820D01*
X14511Y12930D01*
X14362Y13043D01*
X14216Y13160D01*
X14073Y13280D01*
X13933Y13404D01*
X13796Y13531D01*
X13662Y13662D01*
X13531Y13796D01*
X13404Y13933D01*
X13280Y14073D01*
X13160Y14216D01*
X13043Y14362D01*
X12930Y14511D01*
X12820Y14662D01*
X12714Y14817D01*
X12612Y14973D01*
X12514Y15133D01*
X12420Y15294D01*
X12330Y15458D01*
X12244Y15624D01*
X12162Y15792D01*
X12084Y15962D01*
X12010Y16134D01*
X11941Y16308D01*
X11875Y16483D01*
X11815Y16660D01*
X11758Y16838D01*
X11706Y17018D01*
X11658Y17198D01*
X11615Y17380D01*
X11576Y17563D01*
X11542Y17747D01*
X11512Y17932D01*
X11487Y18117D01*
X11467Y18303D01*
X11451Y18489D01*
X11439Y18676D01*
X11432Y18863D01*
X11430Y19050D01*
D18*
X19050Y19050D03*
D17*
X665480Y19050D02*
X665482Y19237D01*
X665489Y19424D01*
X665501Y19611D01*
X665517Y19797D01*
X665537Y19983D01*
X665562Y20168D01*
X665592Y20353D01*
X665626Y20537D01*
X665665Y20720D01*
X665708Y20902D01*
X665756Y21082D01*
X665808Y21262D01*
X665865Y21440D01*
X665925Y21617D01*
X665991Y21792D01*
X666060Y21966D01*
X666134Y22138D01*
X666212Y22308D01*
X666294Y22476D01*
X666380Y22642D01*
X666470Y22806D01*
X666564Y22967D01*
X666662Y23127D01*
X666764Y23283D01*
X666870Y23438D01*
X666980Y23589D01*
X667093Y23738D01*
X667210Y23884D01*
X667330Y24027D01*
X667454Y24167D01*
X667581Y24304D01*
X667712Y24438D01*
X667846Y24569D01*
X667983Y24696D01*
X668123Y24820D01*
X668266Y24940D01*
X668412Y25057D01*
X668561Y25170D01*
X668712Y25280D01*
X668867Y25386D01*
X669023Y25488D01*
X669183Y25586D01*
X669344Y25680D01*
X669508Y25770D01*
X669674Y25856D01*
X669842Y25938D01*
X670012Y26016D01*
X670184Y26090D01*
X670358Y26159D01*
X670533Y26225D01*
X670710Y26285D01*
X670888Y26342D01*
X671068Y26394D01*
X671248Y26442D01*
X671430Y26485D01*
X671613Y26524D01*
X671797Y26558D01*
X671982Y26588D01*
X672167Y26613D01*
X672353Y26633D01*
X672539Y26649D01*
X672726Y26661D01*
X672913Y26668D01*
X673100Y26670D01*
X673287Y26668D01*
X673474Y26661D01*
X673661Y26649D01*
X673847Y26633D01*
X674033Y26613D01*
X674218Y26588D01*
X674403Y26558D01*
X674587Y26524D01*
X674770Y26485D01*
X674952Y26442D01*
X675132Y26394D01*
X675312Y26342D01*
X675490Y26285D01*
X675667Y26225D01*
X675842Y26159D01*
X676016Y26090D01*
X676188Y26016D01*
X676358Y25938D01*
X676526Y25856D01*
X676692Y25770D01*
X676856Y25680D01*
X677017Y25586D01*
X677177Y25488D01*
X677333Y25386D01*
X677488Y25280D01*
X677639Y25170D01*
X677788Y25057D01*
X677934Y24940D01*
X678077Y24820D01*
X678217Y24696D01*
X678354Y24569D01*
X678488Y24438D01*
X678619Y24304D01*
X678746Y24167D01*
X678870Y24027D01*
X678990Y23884D01*
X679107Y23738D01*
X679220Y23589D01*
X679330Y23438D01*
X679436Y23283D01*
X679538Y23127D01*
X679636Y22967D01*
X679730Y22806D01*
X679820Y22642D01*
X679906Y22476D01*
X679988Y22308D01*
X680066Y22138D01*
X680140Y21966D01*
X680209Y21792D01*
X680275Y21617D01*
X680335Y21440D01*
X680392Y21262D01*
X680444Y21082D01*
X680492Y20902D01*
X680535Y20720D01*
X680574Y20537D01*
X680608Y20353D01*
X680638Y20168D01*
X680663Y19983D01*
X680683Y19797D01*
X680699Y19611D01*
X680711Y19424D01*
X680718Y19237D01*
X680720Y19050D01*
X680718Y18863D01*
X680711Y18676D01*
X680699Y18489D01*
X680683Y18303D01*
X680663Y18117D01*
X680638Y17932D01*
X680608Y17747D01*
X680574Y17563D01*
X680535Y17380D01*
X680492Y17198D01*
X680444Y17018D01*
X680392Y16838D01*
X680335Y16660D01*
X680275Y16483D01*
X680209Y16308D01*
X680140Y16134D01*
X680066Y15962D01*
X679988Y15792D01*
X679906Y15624D01*
X679820Y15458D01*
X679730Y15294D01*
X679636Y15133D01*
X679538Y14973D01*
X679436Y14817D01*
X679330Y14662D01*
X679220Y14511D01*
X679107Y14362D01*
X678990Y14216D01*
X678870Y14073D01*
X678746Y13933D01*
X678619Y13796D01*
X678488Y13662D01*
X678354Y13531D01*
X678217Y13404D01*
X678077Y13280D01*
X677934Y13160D01*
X677788Y13043D01*
X677639Y12930D01*
X677488Y12820D01*
X677333Y12714D01*
X677177Y12612D01*
X677017Y12514D01*
X676856Y12420D01*
X676692Y12330D01*
X676526Y12244D01*
X676358Y12162D01*
X676188Y12084D01*
X676016Y12010D01*
X675842Y11941D01*
X675667Y11875D01*
X675490Y11815D01*
X675312Y11758D01*
X675132Y11706D01*
X674952Y11658D01*
X674770Y11615D01*
X674587Y11576D01*
X674403Y11542D01*
X674218Y11512D01*
X674033Y11487D01*
X673847Y11467D01*
X673661Y11451D01*
X673474Y11439D01*
X673287Y11432D01*
X673100Y11430D01*
X672913Y11432D01*
X672726Y11439D01*
X672539Y11451D01*
X672353Y11467D01*
X672167Y11487D01*
X671982Y11512D01*
X671797Y11542D01*
X671613Y11576D01*
X671430Y11615D01*
X671248Y11658D01*
X671068Y11706D01*
X670888Y11758D01*
X670710Y11815D01*
X670533Y11875D01*
X670358Y11941D01*
X670184Y12010D01*
X670012Y12084D01*
X669842Y12162D01*
X669674Y12244D01*
X669508Y12330D01*
X669344Y12420D01*
X669183Y12514D01*
X669023Y12612D01*
X668867Y12714D01*
X668712Y12820D01*
X668561Y12930D01*
X668412Y13043D01*
X668266Y13160D01*
X668123Y13280D01*
X667983Y13404D01*
X667846Y13531D01*
X667712Y13662D01*
X667581Y13796D01*
X667454Y13933D01*
X667330Y14073D01*
X667210Y14216D01*
X667093Y14362D01*
X666980Y14511D01*
X666870Y14662D01*
X666764Y14817D01*
X666662Y14973D01*
X666564Y15133D01*
X666470Y15294D01*
X666380Y15458D01*
X666294Y15624D01*
X666212Y15792D01*
X666134Y15962D01*
X666060Y16134D01*
X665991Y16308D01*
X665925Y16483D01*
X665865Y16660D01*
X665808Y16838D01*
X665756Y17018D01*
X665708Y17198D01*
X665665Y17380D01*
X665626Y17563D01*
X665592Y17747D01*
X665562Y17932D01*
X665537Y18117D01*
X665517Y18303D01*
X665501Y18489D01*
X665489Y18676D01*
X665482Y18863D01*
X665480Y19050D01*
D18*
X673100Y19050D03*
D17*
X665480Y501650D02*
X665482Y501837D01*
X665489Y502024D01*
X665501Y502211D01*
X665517Y502397D01*
X665537Y502583D01*
X665562Y502768D01*
X665592Y502953D01*
X665626Y503137D01*
X665665Y503320D01*
X665708Y503502D01*
X665756Y503682D01*
X665808Y503862D01*
X665865Y504040D01*
X665925Y504217D01*
X665991Y504392D01*
X666060Y504566D01*
X666134Y504738D01*
X666212Y504908D01*
X666294Y505076D01*
X666380Y505242D01*
X666470Y505406D01*
X666564Y505567D01*
X666662Y505727D01*
X666764Y505883D01*
X666870Y506038D01*
X666980Y506189D01*
X667093Y506338D01*
X667210Y506484D01*
X667330Y506627D01*
X667454Y506767D01*
X667581Y506904D01*
X667712Y507038D01*
X667846Y507169D01*
X667983Y507296D01*
X668123Y507420D01*
X668266Y507540D01*
X668412Y507657D01*
X668561Y507770D01*
X668712Y507880D01*
X668867Y507986D01*
X669023Y508088D01*
X669183Y508186D01*
X669344Y508280D01*
X669508Y508370D01*
X669674Y508456D01*
X669842Y508538D01*
X670012Y508616D01*
X670184Y508690D01*
X670358Y508759D01*
X670533Y508825D01*
X670710Y508885D01*
X670888Y508942D01*
X671068Y508994D01*
X671248Y509042D01*
X671430Y509085D01*
X671613Y509124D01*
X671797Y509158D01*
X671982Y509188D01*
X672167Y509213D01*
X672353Y509233D01*
X672539Y509249D01*
X672726Y509261D01*
X672913Y509268D01*
X673100Y509270D01*
X673287Y509268D01*
X673474Y509261D01*
X673661Y509249D01*
X673847Y509233D01*
X674033Y509213D01*
X674218Y509188D01*
X674403Y509158D01*
X674587Y509124D01*
X674770Y509085D01*
X674952Y509042D01*
X675132Y508994D01*
X675312Y508942D01*
X675490Y508885D01*
X675667Y508825D01*
X675842Y508759D01*
X676016Y508690D01*
X676188Y508616D01*
X676358Y508538D01*
X676526Y508456D01*
X676692Y508370D01*
X676856Y508280D01*
X677017Y508186D01*
X677177Y508088D01*
X677333Y507986D01*
X677488Y507880D01*
X677639Y507770D01*
X677788Y507657D01*
X677934Y507540D01*
X678077Y507420D01*
X678217Y507296D01*
X678354Y507169D01*
X678488Y507038D01*
X678619Y506904D01*
X678746Y506767D01*
X678870Y506627D01*
X678990Y506484D01*
X679107Y506338D01*
X679220Y506189D01*
X679330Y506038D01*
X679436Y505883D01*
X679538Y505727D01*
X679636Y505567D01*
X679730Y505406D01*
X679820Y505242D01*
X679906Y505076D01*
X679988Y504908D01*
X680066Y504738D01*
X680140Y504566D01*
X680209Y504392D01*
X680275Y504217D01*
X680335Y504040D01*
X680392Y503862D01*
X680444Y503682D01*
X680492Y503502D01*
X680535Y503320D01*
X680574Y503137D01*
X680608Y502953D01*
X680638Y502768D01*
X680663Y502583D01*
X680683Y502397D01*
X680699Y502211D01*
X680711Y502024D01*
X680718Y501837D01*
X680720Y501650D01*
X680718Y501463D01*
X680711Y501276D01*
X680699Y501089D01*
X680683Y500903D01*
X680663Y500717D01*
X680638Y500532D01*
X680608Y500347D01*
X680574Y500163D01*
X680535Y499980D01*
X680492Y499798D01*
X680444Y499618D01*
X680392Y499438D01*
X680335Y499260D01*
X680275Y499083D01*
X680209Y498908D01*
X680140Y498734D01*
X680066Y498562D01*
X679988Y498392D01*
X679906Y498224D01*
X679820Y498058D01*
X679730Y497894D01*
X679636Y497733D01*
X679538Y497573D01*
X679436Y497417D01*
X679330Y497262D01*
X679220Y497111D01*
X679107Y496962D01*
X678990Y496816D01*
X678870Y496673D01*
X678746Y496533D01*
X678619Y496396D01*
X678488Y496262D01*
X678354Y496131D01*
X678217Y496004D01*
X678077Y495880D01*
X677934Y495760D01*
X677788Y495643D01*
X677639Y495530D01*
X677488Y495420D01*
X677333Y495314D01*
X677177Y495212D01*
X677017Y495114D01*
X676856Y495020D01*
X676692Y494930D01*
X676526Y494844D01*
X676358Y494762D01*
X676188Y494684D01*
X676016Y494610D01*
X675842Y494541D01*
X675667Y494475D01*
X675490Y494415D01*
X675312Y494358D01*
X675132Y494306D01*
X674952Y494258D01*
X674770Y494215D01*
X674587Y494176D01*
X674403Y494142D01*
X674218Y494112D01*
X674033Y494087D01*
X673847Y494067D01*
X673661Y494051D01*
X673474Y494039D01*
X673287Y494032D01*
X673100Y494030D01*
X672913Y494032D01*
X672726Y494039D01*
X672539Y494051D01*
X672353Y494067D01*
X672167Y494087D01*
X671982Y494112D01*
X671797Y494142D01*
X671613Y494176D01*
X671430Y494215D01*
X671248Y494258D01*
X671068Y494306D01*
X670888Y494358D01*
X670710Y494415D01*
X670533Y494475D01*
X670358Y494541D01*
X670184Y494610D01*
X670012Y494684D01*
X669842Y494762D01*
X669674Y494844D01*
X669508Y494930D01*
X669344Y495020D01*
X669183Y495114D01*
X669023Y495212D01*
X668867Y495314D01*
X668712Y495420D01*
X668561Y495530D01*
X668412Y495643D01*
X668266Y495760D01*
X668123Y495880D01*
X667983Y496004D01*
X667846Y496131D01*
X667712Y496262D01*
X667581Y496396D01*
X667454Y496533D01*
X667330Y496673D01*
X667210Y496816D01*
X667093Y496962D01*
X666980Y497111D01*
X666870Y497262D01*
X666764Y497417D01*
X666662Y497573D01*
X666564Y497733D01*
X666470Y497894D01*
X666380Y498058D01*
X666294Y498224D01*
X666212Y498392D01*
X666134Y498562D01*
X666060Y498734D01*
X665991Y498908D01*
X665925Y499083D01*
X665865Y499260D01*
X665808Y499438D01*
X665756Y499618D01*
X665708Y499798D01*
X665665Y499980D01*
X665626Y500163D01*
X665592Y500347D01*
X665562Y500532D01*
X665537Y500717D01*
X665517Y500903D01*
X665501Y501089D01*
X665489Y501276D01*
X665482Y501463D01*
X665480Y501650D01*
D18*
X673100Y501650D03*
D17*
X11430Y19050D02*
X11432Y19237D01*
X11439Y19424D01*
X11451Y19611D01*
X11467Y19797D01*
X11487Y19983D01*
X11512Y20168D01*
X11542Y20353D01*
X11576Y20537D01*
X11615Y20720D01*
X11658Y20902D01*
X11706Y21082D01*
X11758Y21262D01*
X11815Y21440D01*
X11875Y21617D01*
X11941Y21792D01*
X12010Y21966D01*
X12084Y22138D01*
X12162Y22308D01*
X12244Y22476D01*
X12330Y22642D01*
X12420Y22806D01*
X12514Y22967D01*
X12612Y23127D01*
X12714Y23283D01*
X12820Y23438D01*
X12930Y23589D01*
X13043Y23738D01*
X13160Y23884D01*
X13280Y24027D01*
X13404Y24167D01*
X13531Y24304D01*
X13662Y24438D01*
X13796Y24569D01*
X13933Y24696D01*
X14073Y24820D01*
X14216Y24940D01*
X14362Y25057D01*
X14511Y25170D01*
X14662Y25280D01*
X14817Y25386D01*
X14973Y25488D01*
X15133Y25586D01*
X15294Y25680D01*
X15458Y25770D01*
X15624Y25856D01*
X15792Y25938D01*
X15962Y26016D01*
X16134Y26090D01*
X16308Y26159D01*
X16483Y26225D01*
X16660Y26285D01*
X16838Y26342D01*
X17018Y26394D01*
X17198Y26442D01*
X17380Y26485D01*
X17563Y26524D01*
X17747Y26558D01*
X17932Y26588D01*
X18117Y26613D01*
X18303Y26633D01*
X18489Y26649D01*
X18676Y26661D01*
X18863Y26668D01*
X19050Y26670D01*
X19237Y26668D01*
X19424Y26661D01*
X19611Y26649D01*
X19797Y26633D01*
X19983Y26613D01*
X20168Y26588D01*
X20353Y26558D01*
X20537Y26524D01*
X20720Y26485D01*
X20902Y26442D01*
X21082Y26394D01*
X21262Y26342D01*
X21440Y26285D01*
X21617Y26225D01*
X21792Y26159D01*
X21966Y26090D01*
X22138Y26016D01*
X22308Y25938D01*
X22476Y25856D01*
X22642Y25770D01*
X22806Y25680D01*
X22967Y25586D01*
X23127Y25488D01*
X23283Y25386D01*
X23438Y25280D01*
X23589Y25170D01*
X23738Y25057D01*
X23884Y24940D01*
X24027Y24820D01*
X24167Y24696D01*
X24304Y24569D01*
X24438Y24438D01*
X24569Y24304D01*
X24696Y24167D01*
X24820Y24027D01*
X24940Y23884D01*
X25057Y23738D01*
X25170Y23589D01*
X25280Y23438D01*
X25386Y23283D01*
X25488Y23127D01*
X25586Y22967D01*
X25680Y22806D01*
X25770Y22642D01*
X25856Y22476D01*
X25938Y22308D01*
X26016Y22138D01*
X26090Y21966D01*
X26159Y21792D01*
X26225Y21617D01*
X26285Y21440D01*
X26342Y21262D01*
X26394Y21082D01*
X26442Y20902D01*
X26485Y20720D01*
X26524Y20537D01*
X26558Y20353D01*
X26588Y20168D01*
X26613Y19983D01*
X26633Y19797D01*
X26649Y19611D01*
X26661Y19424D01*
X26668Y19237D01*
X26670Y19050D01*
X26668Y18863D01*
X26661Y18676D01*
X26649Y18489D01*
X26633Y18303D01*
X26613Y18117D01*
X26588Y17932D01*
X26558Y17747D01*
X26524Y17563D01*
X26485Y17380D01*
X26442Y17198D01*
X26394Y17018D01*
X26342Y16838D01*
X26285Y16660D01*
X26225Y16483D01*
X26159Y16308D01*
X26090Y16134D01*
X26016Y15962D01*
X25938Y15792D01*
X25856Y15624D01*
X25770Y15458D01*
X25680Y15294D01*
X25586Y15133D01*
X25488Y14973D01*
X25386Y14817D01*
X25280Y14662D01*
X25170Y14511D01*
X25057Y14362D01*
X24940Y14216D01*
X24820Y14073D01*
X24696Y13933D01*
X24569Y13796D01*
X24438Y13662D01*
X24304Y13531D01*
X24167Y13404D01*
X24027Y13280D01*
X23884Y13160D01*
X23738Y13043D01*
X23589Y12930D01*
X23438Y12820D01*
X23283Y12714D01*
X23127Y12612D01*
X22967Y12514D01*
X22806Y12420D01*
X22642Y12330D01*
X22476Y12244D01*
X22308Y12162D01*
X22138Y12084D01*
X21966Y12010D01*
X21792Y11941D01*
X21617Y11875D01*
X21440Y11815D01*
X21262Y11758D01*
X21082Y11706D01*
X20902Y11658D01*
X20720Y11615D01*
X20537Y11576D01*
X20353Y11542D01*
X20168Y11512D01*
X19983Y11487D01*
X19797Y11467D01*
X19611Y11451D01*
X19424Y11439D01*
X19237Y11432D01*
X19050Y11430D01*
X18863Y11432D01*
X18676Y11439D01*
X18489Y11451D01*
X18303Y11467D01*
X18117Y11487D01*
X17932Y11512D01*
X17747Y11542D01*
X17563Y11576D01*
X17380Y11615D01*
X17198Y11658D01*
X17018Y11706D01*
X16838Y11758D01*
X16660Y11815D01*
X16483Y11875D01*
X16308Y11941D01*
X16134Y12010D01*
X15962Y12084D01*
X15792Y12162D01*
X15624Y12244D01*
X15458Y12330D01*
X15294Y12420D01*
X15133Y12514D01*
X14973Y12612D01*
X14817Y12714D01*
X14662Y12820D01*
X14511Y12930D01*
X14362Y13043D01*
X14216Y13160D01*
X14073Y13280D01*
X13933Y13404D01*
X13796Y13531D01*
X13662Y13662D01*
X13531Y13796D01*
X13404Y13933D01*
X13280Y14073D01*
X13160Y14216D01*
X13043Y14362D01*
X12930Y14511D01*
X12820Y14662D01*
X12714Y14817D01*
X12612Y14973D01*
X12514Y15133D01*
X12420Y15294D01*
X12330Y15458D01*
X12244Y15624D01*
X12162Y15792D01*
X12084Y15962D01*
X12010Y16134D01*
X11941Y16308D01*
X11875Y16483D01*
X11815Y16660D01*
X11758Y16838D01*
X11706Y17018D01*
X11658Y17198D01*
X11615Y17380D01*
X11576Y17563D01*
X11542Y17747D01*
X11512Y17932D01*
X11487Y18117D01*
X11467Y18303D01*
X11451Y18489D01*
X11439Y18676D01*
X11432Y18863D01*
X11430Y19050D01*
D18*
X19050Y19050D03*
D17*
X665480Y19050D02*
X665482Y19237D01*
X665489Y19424D01*
X665501Y19611D01*
X665517Y19797D01*
X665537Y19983D01*
X665562Y20168D01*
X665592Y20353D01*
X665626Y20537D01*
X665665Y20720D01*
X665708Y20902D01*
X665756Y21082D01*
X665808Y21262D01*
X665865Y21440D01*
X665925Y21617D01*
X665991Y21792D01*
X666060Y21966D01*
X666134Y22138D01*
X666212Y22308D01*
X666294Y22476D01*
X666380Y22642D01*
X666470Y22806D01*
X666564Y22967D01*
X666662Y23127D01*
X666764Y23283D01*
X666870Y23438D01*
X666980Y23589D01*
X667093Y23738D01*
X667210Y23884D01*
X667330Y24027D01*
X667454Y24167D01*
X667581Y24304D01*
X667712Y24438D01*
X667846Y24569D01*
X667983Y24696D01*
X668123Y24820D01*
X668266Y24940D01*
X668412Y25057D01*
X668561Y25170D01*
X668712Y25280D01*
X668867Y25386D01*
X669023Y25488D01*
X669183Y25586D01*
X669344Y25680D01*
X669508Y25770D01*
X669674Y25856D01*
X669842Y25938D01*
X670012Y26016D01*
X670184Y26090D01*
X670358Y26159D01*
X670533Y26225D01*
X670710Y26285D01*
X670888Y26342D01*
X671068Y26394D01*
X671248Y26442D01*
X671430Y26485D01*
X671613Y26524D01*
X671797Y26558D01*
X671982Y26588D01*
X672167Y26613D01*
X672353Y26633D01*
X672539Y26649D01*
X672726Y26661D01*
X672913Y26668D01*
X673100Y26670D01*
X673287Y26668D01*
X673474Y26661D01*
X673661Y26649D01*
X673847Y26633D01*
X674033Y26613D01*
X674218Y26588D01*
X674403Y26558D01*
X674587Y26524D01*
X674770Y26485D01*
X674952Y26442D01*
X675132Y26394D01*
X675312Y26342D01*
X675490Y26285D01*
X675667Y26225D01*
X675842Y26159D01*
X676016Y26090D01*
X676188Y26016D01*
X676358Y25938D01*
X676526Y25856D01*
X676692Y25770D01*
X676856Y25680D01*
X677017Y25586D01*
X677177Y25488D01*
X677333Y25386D01*
X677488Y25280D01*
X677639Y25170D01*
X677788Y25057D01*
X677934Y24940D01*
X678077Y24820D01*
X678217Y24696D01*
X678354Y24569D01*
X678488Y24438D01*
X678619Y24304D01*
X678746Y24167D01*
X678870Y24027D01*
X678990Y23884D01*
X679107Y23738D01*
X679220Y23589D01*
X679330Y23438D01*
X679436Y23283D01*
X679538Y23127D01*
X679636Y22967D01*
X679730Y22806D01*
X679820Y22642D01*
X679906Y22476D01*
X679988Y22308D01*
X680066Y22138D01*
X680140Y21966D01*
X680209Y21792D01*
X680275Y21617D01*
X680335Y21440D01*
X680392Y21262D01*
X680444Y21082D01*
X680492Y20902D01*
X680535Y20720D01*
X680574Y20537D01*
X680608Y20353D01*
X680638Y20168D01*
X680663Y19983D01*
X680683Y19797D01*
X680699Y19611D01*
X680711Y19424D01*
X680718Y19237D01*
X680720Y19050D01*
X680718Y18863D01*
X680711Y18676D01*
X680699Y18489D01*
X680683Y18303D01*
X680663Y18117D01*
X680638Y17932D01*
X680608Y17747D01*
X680574Y17563D01*
X680535Y17380D01*
X680492Y17198D01*
X680444Y17018D01*
X680392Y16838D01*
X680335Y16660D01*
X680275Y16483D01*
X680209Y16308D01*
X680140Y16134D01*
X680066Y15962D01*
X679988Y15792D01*
X679906Y15624D01*
X679820Y15458D01*
X679730Y15294D01*
X679636Y15133D01*
X679538Y14973D01*
X679436Y14817D01*
X679330Y14662D01*
X679220Y14511D01*
X679107Y14362D01*
X678990Y14216D01*
X678870Y14073D01*
X678746Y13933D01*
X678619Y13796D01*
X678488Y13662D01*
X678354Y13531D01*
X678217Y13404D01*
X678077Y13280D01*
X677934Y13160D01*
X677788Y13043D01*
X677639Y12930D01*
X677488Y12820D01*
X677333Y12714D01*
X677177Y12612D01*
X677017Y12514D01*
X676856Y12420D01*
X676692Y12330D01*
X676526Y12244D01*
X676358Y12162D01*
X676188Y12084D01*
X676016Y12010D01*
X675842Y11941D01*
X675667Y11875D01*
X675490Y11815D01*
X675312Y11758D01*
X675132Y11706D01*
X674952Y11658D01*
X674770Y11615D01*
X674587Y11576D01*
X674403Y11542D01*
X674218Y11512D01*
X674033Y11487D01*
X673847Y11467D01*
X673661Y11451D01*
X673474Y11439D01*
X673287Y11432D01*
X673100Y11430D01*
X672913Y11432D01*
X672726Y11439D01*
X672539Y11451D01*
X672353Y11467D01*
X672167Y11487D01*
X671982Y11512D01*
X671797Y11542D01*
X671613Y11576D01*
X671430Y11615D01*
X671248Y11658D01*
X671068Y11706D01*
X670888Y11758D01*
X670710Y11815D01*
X670533Y11875D01*
X670358Y11941D01*
X670184Y12010D01*
X670012Y12084D01*
X669842Y12162D01*
X669674Y12244D01*
X669508Y12330D01*
X669344Y12420D01*
X669183Y12514D01*
X669023Y12612D01*
X668867Y12714D01*
X668712Y12820D01*
X668561Y12930D01*
X668412Y13043D01*
X668266Y13160D01*
X668123Y13280D01*
X667983Y13404D01*
X667846Y13531D01*
X667712Y13662D01*
X667581Y13796D01*
X667454Y13933D01*
X667330Y14073D01*
X667210Y14216D01*
X667093Y14362D01*
X666980Y14511D01*
X666870Y14662D01*
X666764Y14817D01*
X666662Y14973D01*
X666564Y15133D01*
X666470Y15294D01*
X666380Y15458D01*
X666294Y15624D01*
X666212Y15792D01*
X666134Y15962D01*
X666060Y16134D01*
X665991Y16308D01*
X665925Y16483D01*
X665865Y16660D01*
X665808Y16838D01*
X665756Y17018D01*
X665708Y17198D01*
X665665Y17380D01*
X665626Y17563D01*
X665592Y17747D01*
X665562Y17932D01*
X665537Y18117D01*
X665517Y18303D01*
X665501Y18489D01*
X665489Y18676D01*
X665482Y18863D01*
X665480Y19050D01*
D18*
X673100Y19050D03*
D17*
X665480Y501650D02*
X665482Y501837D01*
X665489Y502024D01*
X665501Y502211D01*
X665517Y502397D01*
X665537Y502583D01*
X665562Y502768D01*
X665592Y502953D01*
X665626Y503137D01*
X665665Y503320D01*
X665708Y503502D01*
X665756Y503682D01*
X665808Y503862D01*
X665865Y504040D01*
X665925Y504217D01*
X665991Y504392D01*
X666060Y504566D01*
X666134Y504738D01*
X666212Y504908D01*
X666294Y505076D01*
X666380Y505242D01*
X666470Y505406D01*
X666564Y505567D01*
X666662Y505727D01*
X666764Y505883D01*
X666870Y506038D01*
X666980Y506189D01*
X667093Y506338D01*
X667210Y506484D01*
X667330Y506627D01*
X667454Y506767D01*
X667581Y506904D01*
X667712Y507038D01*
X667846Y507169D01*
X667983Y507296D01*
X668123Y507420D01*
X668266Y507540D01*
X668412Y507657D01*
X668561Y507770D01*
X668712Y507880D01*
X668867Y507986D01*
X669023Y508088D01*
X669183Y508186D01*
X669344Y508280D01*
X669508Y508370D01*
X669674Y508456D01*
X669842Y508538D01*
X670012Y508616D01*
X670184Y508690D01*
X670358Y508759D01*
X670533Y508825D01*
X670710Y508885D01*
X670888Y508942D01*
X671068Y508994D01*
X671248Y509042D01*
X671430Y509085D01*
X671613Y509124D01*
X671797Y509158D01*
X671982Y509188D01*
X672167Y509213D01*
X672353Y509233D01*
X672539Y509249D01*
X672726Y509261D01*
X672913Y509268D01*
X673100Y509270D01*
X673287Y509268D01*
X673474Y509261D01*
X673661Y509249D01*
X673847Y509233D01*
X674033Y509213D01*
X674218Y509188D01*
X674403Y509158D01*
X674587Y509124D01*
X674770Y509085D01*
X674952Y509042D01*
X675132Y508994D01*
X675312Y508942D01*
X675490Y508885D01*
X675667Y508825D01*
X675842Y508759D01*
X676016Y508690D01*
X676188Y508616D01*
X676358Y508538D01*
X676526Y508456D01*
X676692Y508370D01*
X676856Y508280D01*
X677017Y508186D01*
X677177Y508088D01*
X677333Y507986D01*
X677488Y507880D01*
X677639Y507770D01*
X677788Y507657D01*
X677934Y507540D01*
X678077Y507420D01*
X678217Y507296D01*
X678354Y507169D01*
X678488Y507038D01*
X678619Y506904D01*
X678746Y506767D01*
X678870Y506627D01*
X678990Y506484D01*
X679107Y506338D01*
X679220Y506189D01*
X679330Y506038D01*
X679436Y505883D01*
X679538Y505727D01*
X679636Y505567D01*
X679730Y505406D01*
X679820Y505242D01*
X679906Y505076D01*
X679988Y504908D01*
X680066Y504738D01*
X680140Y504566D01*
X680209Y504392D01*
X680275Y504217D01*
X680335Y504040D01*
X680392Y503862D01*
X680444Y503682D01*
X680492Y503502D01*
X680535Y503320D01*
X680574Y503137D01*
X680608Y502953D01*
X680638Y502768D01*
X680663Y502583D01*
X680683Y502397D01*
X680699Y502211D01*
X680711Y502024D01*
X680718Y501837D01*
X680720Y501650D01*
X680718Y501463D01*
X680711Y501276D01*
X680699Y501089D01*
X680683Y500903D01*
X680663Y500717D01*
X680638Y500532D01*
X680608Y500347D01*
X680574Y500163D01*
X680535Y499980D01*
X680492Y499798D01*
X680444Y499618D01*
X680392Y499438D01*
X680335Y499260D01*
X680275Y499083D01*
X680209Y498908D01*
X680140Y498734D01*
X680066Y498562D01*
X679988Y498392D01*
X679906Y498224D01*
X679820Y498058D01*
X679730Y497894D01*
X679636Y497733D01*
X679538Y497573D01*
X679436Y497417D01*
X679330Y497262D01*
X679220Y497111D01*
X679107Y496962D01*
X678990Y496816D01*
X678870Y496673D01*
X678746Y496533D01*
X678619Y496396D01*
X678488Y496262D01*
X678354Y496131D01*
X678217Y496004D01*
X678077Y495880D01*
X677934Y495760D01*
X677788Y495643D01*
X677639Y495530D01*
X677488Y495420D01*
X677333Y495314D01*
X677177Y495212D01*
X677017Y495114D01*
X676856Y495020D01*
X676692Y494930D01*
X676526Y494844D01*
X676358Y494762D01*
X676188Y494684D01*
X676016Y494610D01*
X675842Y494541D01*
X675667Y494475D01*
X675490Y494415D01*
X675312Y494358D01*
X675132Y494306D01*
X674952Y494258D01*
X674770Y494215D01*
X674587Y494176D01*
X674403Y494142D01*
X674218Y494112D01*
X674033Y494087D01*
X673847Y494067D01*
X673661Y494051D01*
X673474Y494039D01*
X673287Y494032D01*
X673100Y494030D01*
X672913Y494032D01*
X672726Y494039D01*
X672539Y494051D01*
X672353Y494067D01*
X672167Y494087D01*
X671982Y494112D01*
X671797Y494142D01*
X671613Y494176D01*
X671430Y494215D01*
X671248Y494258D01*
X671068Y494306D01*
X670888Y494358D01*
X670710Y494415D01*
X670533Y494475D01*
X670358Y494541D01*
X670184Y494610D01*
X670012Y494684D01*
X669842Y494762D01*
X669674Y494844D01*
X669508Y494930D01*
X669344Y495020D01*
X669183Y495114D01*
X669023Y495212D01*
X668867Y495314D01*
X668712Y495420D01*
X668561Y495530D01*
X668412Y495643D01*
X668266Y495760D01*
X668123Y495880D01*
X667983Y496004D01*
X667846Y496131D01*
X667712Y496262D01*
X667581Y496396D01*
X667454Y496533D01*
X667330Y496673D01*
X667210Y496816D01*
X667093Y496962D01*
X666980Y497111D01*
X666870Y497262D01*
X666764Y497417D01*
X666662Y497573D01*
X666564Y497733D01*
X666470Y497894D01*
X666380Y498058D01*
X666294Y498224D01*
X666212Y498392D01*
X666134Y498562D01*
X666060Y498734D01*
X665991Y498908D01*
X665925Y499083D01*
X665865Y499260D01*
X665808Y499438D01*
X665756Y499618D01*
X665708Y499798D01*
X665665Y499980D01*
X665626Y500163D01*
X665592Y500347D01*
X665562Y500532D01*
X665537Y500717D01*
X665517Y500903D01*
X665501Y501089D01*
X665489Y501276D01*
X665482Y501463D01*
X665480Y501650D01*
D18*
X673100Y501650D03*
M02*
