G04 EAGLE Gerber RS-274X export*
G75*
%MOMM*%
%FSLAX34Y34*%
%LPD*%
%INSolderpaste Bottom*%
%IPPOS*%
%AMOC8*
5,1,8,0,0,1.08239X$1,22.5*%
G01*
%ADD10C,0.140000*%
%ADD11R,0.650000X0.650000*%
%ADD12R,0.609600X0.508000*%
%ADD13R,1.100000X0.800000*%
%ADD14R,1.100000X1.000000*%


D10*
X582100Y145150D02*
X575500Y145150D01*
X575500Y146550D01*
X582100Y146550D01*
X582100Y145150D01*
X582100Y146480D02*
X575500Y146480D01*
X575500Y140150D02*
X582100Y140150D01*
X575500Y140150D02*
X575500Y141550D01*
X582100Y141550D01*
X582100Y140150D01*
X582100Y141480D02*
X575500Y141480D01*
X575500Y135150D02*
X582100Y135150D01*
X575500Y135150D02*
X575500Y136550D01*
X582100Y136550D01*
X582100Y135150D01*
X582100Y136480D02*
X575500Y136480D01*
X575500Y130150D02*
X582100Y130150D01*
X575500Y130150D02*
X575500Y131550D01*
X582100Y131550D01*
X582100Y130150D01*
X582100Y131480D02*
X575500Y131480D01*
X575500Y125150D02*
X582100Y125150D01*
X575500Y125150D02*
X575500Y126550D01*
X582100Y126550D01*
X582100Y125150D01*
X582100Y126480D02*
X575500Y126480D01*
X575500Y120150D02*
X582100Y120150D01*
X575500Y120150D02*
X575500Y121550D01*
X582100Y121550D01*
X582100Y120150D01*
X582100Y121480D02*
X575500Y121480D01*
X572000Y116650D02*
X572000Y110050D01*
X570600Y110050D01*
X570600Y116650D01*
X572000Y116650D01*
X572000Y111380D02*
X570600Y111380D01*
X570600Y112710D02*
X572000Y112710D01*
X572000Y114040D02*
X570600Y114040D01*
X570600Y115370D02*
X572000Y115370D01*
X567000Y116650D02*
X567000Y110050D01*
X565600Y110050D01*
X565600Y116650D01*
X567000Y116650D01*
X567000Y111380D02*
X565600Y111380D01*
X565600Y112710D02*
X567000Y112710D01*
X567000Y114040D02*
X565600Y114040D01*
X565600Y115370D02*
X567000Y115370D01*
X562000Y116650D02*
X562000Y110050D01*
X560600Y110050D01*
X560600Y116650D01*
X562000Y116650D01*
X562000Y111380D02*
X560600Y111380D01*
X560600Y112710D02*
X562000Y112710D01*
X562000Y114040D02*
X560600Y114040D01*
X560600Y115370D02*
X562000Y115370D01*
X557000Y116650D02*
X557000Y110050D01*
X555600Y110050D01*
X555600Y116650D01*
X557000Y116650D01*
X557000Y111380D02*
X555600Y111380D01*
X555600Y112710D02*
X557000Y112710D01*
X557000Y114040D02*
X555600Y114040D01*
X555600Y115370D02*
X557000Y115370D01*
X552000Y116650D02*
X552000Y110050D01*
X550600Y110050D01*
X550600Y116650D01*
X552000Y116650D01*
X552000Y111380D02*
X550600Y111380D01*
X550600Y112710D02*
X552000Y112710D01*
X552000Y114040D02*
X550600Y114040D01*
X550600Y115370D02*
X552000Y115370D01*
X547000Y116650D02*
X547000Y110050D01*
X545600Y110050D01*
X545600Y116650D01*
X547000Y116650D01*
X547000Y111380D02*
X545600Y111380D01*
X545600Y112710D02*
X547000Y112710D01*
X547000Y114040D02*
X545600Y114040D01*
X545600Y115370D02*
X547000Y115370D01*
X542100Y121550D02*
X535500Y121550D01*
X542100Y121550D02*
X542100Y120150D01*
X535500Y120150D01*
X535500Y121550D01*
X535500Y121480D02*
X542100Y121480D01*
X542100Y126550D02*
X535500Y126550D01*
X542100Y126550D02*
X542100Y125150D01*
X535500Y125150D01*
X535500Y126550D01*
X535500Y126480D02*
X542100Y126480D01*
X542100Y131550D02*
X535500Y131550D01*
X542100Y131550D02*
X542100Y130150D01*
X535500Y130150D01*
X535500Y131550D01*
X535500Y131480D02*
X542100Y131480D01*
X542100Y136550D02*
X535500Y136550D01*
X542100Y136550D02*
X542100Y135150D01*
X535500Y135150D01*
X535500Y136550D01*
X535500Y136480D02*
X542100Y136480D01*
X542100Y141550D02*
X535500Y141550D01*
X542100Y141550D02*
X542100Y140150D01*
X535500Y140150D01*
X535500Y141550D01*
X535500Y141480D02*
X542100Y141480D01*
X542100Y146550D02*
X535500Y146550D01*
X542100Y146550D02*
X542100Y145150D01*
X535500Y145150D01*
X535500Y146550D01*
X535500Y146480D02*
X542100Y146480D01*
X545600Y150050D02*
X545600Y156650D01*
X547000Y156650D01*
X547000Y150050D01*
X545600Y150050D01*
X545600Y151380D02*
X547000Y151380D01*
X547000Y152710D02*
X545600Y152710D01*
X545600Y154040D02*
X547000Y154040D01*
X547000Y155370D02*
X545600Y155370D01*
X550600Y156650D02*
X550600Y150050D01*
X550600Y156650D02*
X552000Y156650D01*
X552000Y150050D01*
X550600Y150050D01*
X550600Y151380D02*
X552000Y151380D01*
X552000Y152710D02*
X550600Y152710D01*
X550600Y154040D02*
X552000Y154040D01*
X552000Y155370D02*
X550600Y155370D01*
X555600Y156650D02*
X555600Y150050D01*
X555600Y156650D02*
X557000Y156650D01*
X557000Y150050D01*
X555600Y150050D01*
X555600Y151380D02*
X557000Y151380D01*
X557000Y152710D02*
X555600Y152710D01*
X555600Y154040D02*
X557000Y154040D01*
X557000Y155370D02*
X555600Y155370D01*
X560600Y156650D02*
X560600Y150050D01*
X560600Y156650D02*
X562000Y156650D01*
X562000Y150050D01*
X560600Y150050D01*
X560600Y151380D02*
X562000Y151380D01*
X562000Y152710D02*
X560600Y152710D01*
X560600Y154040D02*
X562000Y154040D01*
X562000Y155370D02*
X560600Y155370D01*
X565600Y156650D02*
X565600Y150050D01*
X565600Y156650D02*
X567000Y156650D01*
X567000Y150050D01*
X565600Y150050D01*
X565600Y151380D02*
X567000Y151380D01*
X567000Y152710D02*
X565600Y152710D01*
X565600Y154040D02*
X567000Y154040D01*
X567000Y155370D02*
X565600Y155370D01*
X570600Y156650D02*
X570600Y150050D01*
X570600Y156650D02*
X572000Y156650D01*
X572000Y150050D01*
X570600Y150050D01*
X570600Y151380D02*
X572000Y151380D01*
X572000Y152710D02*
X570600Y152710D01*
X570600Y154040D02*
X572000Y154040D01*
X572000Y155370D02*
X570600Y155370D01*
D11*
X554550Y137600D03*
X554550Y129100D03*
X563050Y137600D03*
X563050Y129100D03*
D12*
X407162Y285750D03*
X418338Y285750D03*
X407162Y266700D03*
X418338Y266700D03*
X407162Y247650D03*
X418338Y247650D03*
X407162Y222250D03*
X418338Y222250D03*
D13*
X50350Y494450D03*
X50350Y483450D03*
D14*
X25850Y488950D03*
D13*
X723450Y488100D03*
X723450Y477100D03*
D14*
X698950Y482600D03*
M02*
